# xmcd CD database file
#
# Track frame offsets:
#	150
#	33366
#	38911
#	63462
#	68849
#	88282
#	93814
#	107742
#	111748
#	141420
#	146527
#	176896
#	192903
#	232537
#	281575
#
# Disc length: 4124 seconds
#
# Revision: 0
# Processed by: cddbd v1.5PL3 Copyright (c) Steve Scherf et al.
# Submitted via: CDex 1.51
#
DISCID=dc101a0f
DTITLE=筆おろし - LIVE IN JAPAN
DYEAR=2003
DGENRE=Rock
TTITLE0=ゴルゴ13の唄
TTITLE1=MC
TTITLE2=ムードシナ
TTITLE3=MC
TTITLE4=無駄な夜
TTITLE5=MC
TTITLE6=人は見かけじゃわからない
TTITLE7=MC
TTITLE8=OYAJI
TTITLE9=MC
TTITLE10=昔のビデオ
TTITLE11=私はそこへ行く気がしない
TTITLE12=パキラ
TTITLE13=その日は朝から雨だった　〜しわよせの世界
TTITLE14=食べ放題
EXTD=YEAR: 2003
EXTT0=
EXTT1=
EXTT2=
EXTT3=
EXTT4=
EXTT5=
EXTT6=
EXTT7=
EXTT8=
EXTT9=
EXTT10=
EXTT11=
EXTT12=
EXTT13=
EXTT14=
PLAYORDER=
